<mxfile host="app.diagrams.net" modified="2023-05-13T03:48:06.686Z" agent="Mozilla/5.0 (Windows NT 10.0; Win64; x64) AppleWebKit/537.36 (KHTML, like Gecko) Chrome/112.0.0.0 Safari/537.36" etag="y2VSE_S91j8dCr7MHBYC" version="21.3.0" type="github">
  <diagram name="第 1 页" id="OgZmK5HEktqeLfpD_v36">
    <mxGraphModel dx="5598" dy="1913" grid="0" gridSize="10" guides="1" tooltips="1" connect="1" arrows="1" fold="1" page="0" pageScale="1" pageWidth="827" pageHeight="1169" math="0" shadow="0">
      <root>
        <mxCell id="0" />
        <mxCell id="1" parent="0" />
        <mxCell id="wRf2Hl0L2Rg9OZS0prIL-1" value="HttpSecurity Configures" style="rounded=0;whiteSpace=wrap;html=1;verticalAlign=top;fontFamily=Verdana;fontSize=12;fontColor=#000000;" vertex="1" parent="1">
          <mxGeometry x="-67" y="255" width="549" height="222" as="geometry" />
        </mxCell>
        <mxCell id="wRf2Hl0L2Rg9OZS0prIL-2" style="edgeStyle=orthogonalEdgeStyle;rounded=0;orthogonalLoop=1;jettySize=auto;html=1;entryX=0.5;entryY=0;entryDx=0;entryDy=0;" edge="1" parent="1" source="wRf2Hl0L2Rg9OZS0prIL-3" target="wRf2Hl0L2Rg9OZS0prIL-14">
          <mxGeometry relative="1" as="geometry" />
        </mxCell>
        <mxCell id="wRf2Hl0L2Rg9OZS0prIL-3" value="&lt;div style=&quot;font-size: 12px;&quot;&gt;&lt;font style=&quot;font-size: 12px;&quot;&gt;ExceptionTranslationFilter&lt;/font&gt;&lt;/div&gt;" style="rounded=0;whiteSpace=wrap;html=1;fontFamily=Verdana;fontSize=12;fontColor=#000000;" vertex="1" parent="1">
          <mxGeometry x="-822.75" y="1422" width="279" height="65" as="geometry" />
        </mxCell>
        <mxCell id="wRf2Hl0L2Rg9OZS0prIL-4" value="&lt;div style=&quot;font-size: 12px;&quot;&gt;OAuth2AuthorizationRequestRedirectFilter&lt;/div&gt;" style="rounded=0;whiteSpace=wrap;html=1;fontFamily=Verdana;verticalAlign=top;fontSize=12;fontColor=#000000;" vertex="1" parent="1">
          <mxGeometry x="-890.75" y="912" width="415" height="226" as="geometry" />
        </mxCell>
        <mxCell id="wRf2Hl0L2Rg9OZS0prIL-5" style="edgeStyle=orthogonalEdgeStyle;rounded=0;orthogonalLoop=1;jettySize=auto;html=1;entryX=0.5;entryY=0;entryDx=0;entryDy=0;fontFamily=Verdana;fontSize=12;fontColor=#000000;" edge="1" parent="1" source="wRf2Hl0L2Rg9OZS0prIL-6" target="wRf2Hl0L2Rg9OZS0prIL-9">
          <mxGeometry relative="1" as="geometry">
            <mxPoint x="-687.7500000000002" y="1197" as="targetPoint" />
          </mxGeometry>
        </mxCell>
        <mxCell id="wRf2Hl0L2Rg9OZS0prIL-6" value="&lt;div style=&quot;font-size: 12px;&quot;&gt;doFilterInternal&lt;/div&gt;" style="rounded=0;whiteSpace=wrap;html=1;fontFamily=Verdana;fontSize=12;fontColor=#000000;" vertex="1" parent="1">
          <mxGeometry x="-774.25" y="993" width="182" height="60" as="geometry" />
        </mxCell>
        <mxCell id="wRf2Hl0L2Rg9OZS0prIL-7" style="edgeStyle=orthogonalEdgeStyle;rounded=0;orthogonalLoop=1;jettySize=auto;html=1;fontFamily=Verdana;fontSize=12;fontColor=#000000;" edge="1" parent="1" source="wRf2Hl0L2Rg9OZS0prIL-9" target="wRf2Hl0L2Rg9OZS0prIL-11">
          <mxGeometry relative="1" as="geometry" />
        </mxCell>
        <mxCell id="wRf2Hl0L2Rg9OZS0prIL-8" style="edgeStyle=orthogonalEdgeStyle;rounded=0;orthogonalLoop=1;jettySize=auto;html=1;fontFamily=Verdana;fontSize=12;fontColor=#000000;" edge="1" parent="1" source="wRf2Hl0L2Rg9OZS0prIL-9" target="wRf2Hl0L2Rg9OZS0prIL-48">
          <mxGeometry relative="1" as="geometry">
            <mxPoint x="-987.5660292681525" y="1198" as="targetPoint" />
          </mxGeometry>
        </mxCell>
        <mxCell id="wRf2Hl0L2Rg9OZS0prIL-9" value="是否是Oauth授权客户端发起的认证请求" style="rhombus;whiteSpace=wrap;html=1;fontFamily=Verdana;fontSize=12;fontColor=#000000;" vertex="1" parent="1">
          <mxGeometry x="-802.5" y="1158" width="238.5" height="80" as="geometry" />
        </mxCell>
        <mxCell id="wRf2Hl0L2Rg9OZS0prIL-10" value="" style="edgeStyle=orthogonalEdgeStyle;rounded=0;orthogonalLoop=1;jettySize=auto;html=1;fontFamily=Verdana;fontSize=12;fontColor=#000000;" edge="1" parent="1" source="wRf2Hl0L2Rg9OZS0prIL-11" target="wRf2Hl0L2Rg9OZS0prIL-3">
          <mxGeometry relative="1" as="geometry" />
        </mxCell>
        <mxCell id="wRf2Hl0L2Rg9OZS0prIL-11" value="&lt;div style=&quot;font-size: 12px;&quot;&gt;filterChain.doFilter()&lt;/div&gt;" style="rounded=0;whiteSpace=wrap;html=1;fontFamily=Verdana;fontSize=12;fontColor=#000000;" vertex="1" parent="1">
          <mxGeometry x="-794.875" y="1282" width="223.25" height="60" as="geometry" />
        </mxCell>
        <mxCell id="wRf2Hl0L2Rg9OZS0prIL-12" style="edgeStyle=orthogonalEdgeStyle;rounded=0;orthogonalLoop=1;jettySize=auto;html=1;entryX=0.521;entryY=0.898;entryDx=0;entryDy=0;entryPerimeter=0;fontFamily=Verdana;fontSize=12;fontColor=#000000;" edge="1" parent="1" source="wRf2Hl0L2Rg9OZS0prIL-20" target="wRf2Hl0L2Rg9OZS0prIL-17">
          <mxGeometry relative="1" as="geometry" />
        </mxCell>
        <mxCell id="wRf2Hl0L2Rg9OZS0prIL-13" style="edgeStyle=orthogonalEdgeStyle;rounded=0;orthogonalLoop=1;jettySize=auto;html=1;" edge="1" parent="1" source="wRf2Hl0L2Rg9OZS0prIL-14" target="wRf2Hl0L2Rg9OZS0prIL-49">
          <mxGeometry relative="1" as="geometry">
            <mxPoint x="-683.25" y="1693.3387666590074" as="targetPoint" />
          </mxGeometry>
        </mxCell>
        <mxCell id="wRf2Hl0L2Rg9OZS0prIL-14" value="该请求过程是否抛出异常" style="rhombus;whiteSpace=wrap;html=1;fontFamily=Verdana;fontSize=12;fontColor=#000000;" vertex="1" parent="1">
          <mxGeometry x="-768.25" y="1543" width="170" height="80" as="geometry" />
        </mxCell>
        <mxCell id="wRf2Hl0L2Rg9OZS0prIL-15" style="edgeStyle=orthogonalEdgeStyle;rounded=0;orthogonalLoop=1;jettySize=auto;html=1;fontFamily=Verdana;fontSize=12;fontColor=#000000;" edge="1" parent="1" source="wRf2Hl0L2Rg9OZS0prIL-17" target="wRf2Hl0L2Rg9OZS0prIL-22">
          <mxGeometry relative="1" as="geometry" />
        </mxCell>
        <mxCell id="wRf2Hl0L2Rg9OZS0prIL-16" value="发送一个认证请求" style="edgeLabel;html=1;align=center;verticalAlign=middle;resizable=0;points=[];fontFamily=Verdana;fontSize=12;fontColor=#000000;" vertex="1" connectable="0" parent="wRf2Hl0L2Rg9OZS0prIL-15">
          <mxGeometry x="-0.2925" relative="1" as="geometry">
            <mxPoint x="53" y="-73" as="offset" />
          </mxGeometry>
        </mxCell>
        <mxCell id="wRf2Hl0L2Rg9OZS0prIL-17" value="&lt;div style=&quot;font-size: 12px;&quot;&gt;handleAccessDeniedException&lt;/div&gt;" style="rounded=0;whiteSpace=wrap;html=1;fontFamily=Verdana;fontSize=12;fontColor=#000000;" vertex="1" parent="1">
          <mxGeometry x="-575" y="1432.75" width="281" height="43.5" as="geometry" />
        </mxCell>
        <mxCell id="wRf2Hl0L2Rg9OZS0prIL-18" value="" style="edgeStyle=orthogonalEdgeStyle;rounded=0;orthogonalLoop=1;jettySize=auto;html=1;entryX=0.521;entryY=0.898;entryDx=0;entryDy=0;entryPerimeter=0;fontFamily=Verdana;fontSize=12;fontColor=#000000;" edge="1" parent="1" source="wRf2Hl0L2Rg9OZS0prIL-14" target="wRf2Hl0L2Rg9OZS0prIL-20">
          <mxGeometry relative="1" as="geometry">
            <mxPoint x="-597.75" y="1583" as="sourcePoint" />
            <mxPoint x="-424.75" y="1104" as="targetPoint" />
          </mxGeometry>
        </mxCell>
        <mxCell id="wRf2Hl0L2Rg9OZS0prIL-19" value="抛出了" style="edgeLabel;html=1;align=center;verticalAlign=middle;resizable=0;points=[];" vertex="1" connectable="0" parent="wRf2Hl0L2Rg9OZS0prIL-18">
          <mxGeometry x="-0.8368" y="-2" relative="1" as="geometry">
            <mxPoint x="34" y="-2" as="offset" />
          </mxGeometry>
        </mxCell>
        <mxCell id="wRf2Hl0L2Rg9OZS0prIL-20" value="Throw AccessDenied" style="rounded=0;whiteSpace=wrap;html=1;fontFamily=Verdana;fontSize=12;fontColor=#000000;" vertex="1" parent="1">
          <mxGeometry x="-489" y="1530" width="120" height="60" as="geometry" />
        </mxCell>
        <mxCell id="wRf2Hl0L2Rg9OZS0prIL-21" style="edgeStyle=orthogonalEdgeStyle;rounded=0;orthogonalLoop=1;jettySize=auto;html=1;entryX=0;entryY=0.5;entryDx=0;entryDy=0;fontFamily=Verdana;fontSize=12;fontColor=#000000;exitX=0.5;exitY=0;exitDx=0;exitDy=0;" edge="1" parent="1" source="wRf2Hl0L2Rg9OZS0prIL-22" target="wRf2Hl0L2Rg9OZS0prIL-41">
          <mxGeometry relative="1" as="geometry" />
        </mxCell>
        <mxCell id="wRf2Hl0L2Rg9OZS0prIL-22" value="&lt;div style=&quot;background-color: rgb(255, 255, 255); font-size: 12px;&quot;&gt;&lt;span style=&quot;font-size: 12px;&quot;&gt;sendStartAuthentication&lt;/span&gt;&lt;/div&gt;" style="rounded=0;whiteSpace=wrap;html=1;fontFamily=Verdana;fontSize=12;fontColor=#000000;" vertex="1" parent="1">
          <mxGeometry x="-237" y="1207" width="256" height="60" as="geometry" />
        </mxCell>
        <mxCell id="wRf2Hl0L2Rg9OZS0prIL-23" value="" style="edgeStyle=orthogonalEdgeStyle;rounded=0;orthogonalLoop=1;jettySize=auto;html=1;fontFamily=Verdana;fontSize=12;fontColor=#000000;" edge="1" parent="1" source="wRf2Hl0L2Rg9OZS0prIL-25" target="wRf2Hl0L2Rg9OZS0prIL-27">
          <mxGeometry relative="1" as="geometry" />
        </mxCell>
        <mxCell id="wRf2Hl0L2Rg9OZS0prIL-24" value="开启Oauth认证" style="edgeLabel;html=1;align=center;verticalAlign=middle;resizable=0;points=[];fontFamily=Verdana;fontSize=12;fontColor=#000000;" vertex="1" connectable="0" parent="wRf2Hl0L2Rg9OZS0prIL-23">
          <mxGeometry x="-0.1804" y="2" relative="1" as="geometry">
            <mxPoint as="offset" />
          </mxGeometry>
        </mxCell>
        <mxCell id="wRf2Hl0L2Rg9OZS0prIL-25" value="Spring Security" style="rounded=0;whiteSpace=wrap;html=1;fontFamily=Verdana;fontSize=12;fontColor=#000000;" vertex="1" parent="1">
          <mxGeometry x="-19" y="379" width="120" height="60" as="geometry" />
        </mxCell>
        <mxCell id="wRf2Hl0L2Rg9OZS0prIL-26" value="" style="edgeStyle=orthogonalEdgeStyle;rounded=0;orthogonalLoop=1;jettySize=auto;html=1;fontFamily=Verdana;fontSize=12;fontColor=#000000;" edge="1" parent="1" source="wRf2Hl0L2Rg9OZS0prIL-27" target="wRf2Hl0L2Rg9OZS0prIL-30">
          <mxGeometry relative="1" as="geometry" />
        </mxCell>
        <mxCell id="wRf2Hl0L2Rg9OZS0prIL-27" value="&lt;div style=&quot;font-size: 12px;&quot;&gt;oauth2Login()&lt;/div&gt;" style="rounded=0;whiteSpace=wrap;html=1;fontFamily=Verdana;fontSize=12;fontColor=#000000;" vertex="1" parent="1">
          <mxGeometry x="260" y="379" width="139" height="60" as="geometry" />
        </mxCell>
        <mxCell id="wRf2Hl0L2Rg9OZS0prIL-28" value="" style="edgeStyle=orthogonalEdgeStyle;rounded=0;orthogonalLoop=1;jettySize=auto;html=1;fontFamily=Verdana;fontSize=12;fontColor=#000000;" edge="1" parent="1" source="wRf2Hl0L2Rg9OZS0prIL-30" target="wRf2Hl0L2Rg9OZS0prIL-39">
          <mxGeometry relative="1" as="geometry" />
        </mxCell>
        <mxCell id="wRf2Hl0L2Rg9OZS0prIL-29" value="创建" style="edgeLabel;html=1;align=center;verticalAlign=middle;resizable=0;points=[];fontFamily=Verdana;fontSize=12;fontColor=#000000;" vertex="1" connectable="0" parent="wRf2Hl0L2Rg9OZS0prIL-28">
          <mxGeometry x="-0.2404" y="-2" relative="1" as="geometry">
            <mxPoint as="offset" />
          </mxGeometry>
        </mxCell>
        <mxCell id="wRf2Hl0L2Rg9OZS0prIL-30" value="Init()" style="whiteSpace=wrap;html=1;rounded=0;fontFamily=Verdana;fontSize=12;fontColor=#000000;" vertex="1" parent="1">
          <mxGeometry x="269.5" y="519" width="120" height="60" as="geometry" />
        </mxCell>
        <mxCell id="wRf2Hl0L2Rg9OZS0prIL-31" style="edgeStyle=orthogonalEdgeStyle;rounded=0;orthogonalLoop=1;jettySize=auto;html=1;fontFamily=Verdana;fontSize=12;fontColor=#000000;" edge="1" parent="1" source="wRf2Hl0L2Rg9OZS0prIL-33" target="wRf2Hl0L2Rg9OZS0prIL-30">
          <mxGeometry relative="1" as="geometry" />
        </mxCell>
        <mxCell id="wRf2Hl0L2Rg9OZS0prIL-32" value="调用" style="edgeLabel;html=1;align=center;verticalAlign=middle;resizable=0;points=[];fontFamily=Verdana;fontSize=12;fontColor=#000000;" vertex="1" connectable="0" parent="wRf2Hl0L2Rg9OZS0prIL-31">
          <mxGeometry x="0.1086" y="-3" relative="1" as="geometry">
            <mxPoint x="-35" y="-3" as="offset" />
          </mxGeometry>
        </mxCell>
        <mxCell id="wRf2Hl0L2Rg9OZS0prIL-33" value="HttpSecurity" style="rounded=0;whiteSpace=wrap;html=1;fontFamily=Verdana;fontSize=12;fontColor=#000000;" vertex="1" parent="1">
          <mxGeometry x="720" y="519" width="120" height="60" as="geometry" />
        </mxCell>
        <mxCell id="wRf2Hl0L2Rg9OZS0prIL-34" value="FormLogin" style="rounded=0;whiteSpace=wrap;html=1;fontFamily=Verdana;fontSize=12;fontColor=#000000;" vertex="1" parent="1">
          <mxGeometry x="-22" y="300" width="120" height="60" as="geometry" />
        </mxCell>
        <mxCell id="wRf2Hl0L2Rg9OZS0prIL-35" value="Remember Me" style="rounded=0;whiteSpace=wrap;html=1;fontFamily=Verdana;fontSize=12;fontColor=#000000;" vertex="1" parent="1">
          <mxGeometry x="134" y="300" width="120" height="60" as="geometry" />
        </mxCell>
        <mxCell id="wRf2Hl0L2Rg9OZS0prIL-36" value="拦截配置" style="rounded=0;whiteSpace=wrap;html=1;fontFamily=Verdana;fontSize=12;fontColor=#000000;" vertex="1" parent="1">
          <mxGeometry x="279" y="300" width="120" height="60" as="geometry" />
        </mxCell>
        <mxCell id="wRf2Hl0L2Rg9OZS0prIL-37" value="" style="edgeStyle=orthogonalEdgeStyle;rounded=0;orthogonalLoop=1;jettySize=auto;html=1;fontFamily=Verdana;fontSize=12;fontColor=#000000;entryX=0.556;entryY=-0.058;entryDx=0;entryDy=0;entryPerimeter=0;" edge="1" parent="1" source="wRf2Hl0L2Rg9OZS0prIL-39" target="wRf2Hl0L2Rg9OZS0prIL-41">
          <mxGeometry relative="1" as="geometry">
            <mxPoint x="371" y="1014" as="targetPoint" />
          </mxGeometry>
        </mxCell>
        <mxCell id="wRf2Hl0L2Rg9OZS0prIL-38" value="设置认证URL入口点" style="edgeLabel;html=1;align=center;verticalAlign=middle;resizable=0;points=[];fontFamily=Verdana;fontSize=12;fontColor=#000000;" vertex="1" connectable="0" parent="wRf2Hl0L2Rg9OZS0prIL-37">
          <mxGeometry x="-0.2094" relative="1" as="geometry">
            <mxPoint x="-3" y="8" as="offset" />
          </mxGeometry>
        </mxCell>
        <mxCell id="wRf2Hl0L2Rg9OZS0prIL-39" value="&lt;div style=&quot;background-color: rgb(255, 255, 255); font-size: 12px;&quot;&gt;&lt;span style=&quot;font-size: 12px;&quot;&gt;OAuth2LoginAuthenticationFilter&lt;/span&gt;&lt;/div&gt;" style="whiteSpace=wrap;html=1;fontFamily=Verdana;rounded=0;fontSize=12;fontColor=#000000;" vertex="1" parent="1">
          <mxGeometry x="175.75" y="726" width="307.5" height="60" as="geometry" />
        </mxCell>
        <mxCell id="wRf2Hl0L2Rg9OZS0prIL-40" value="" style="group;fontFamily=Verdana;fontSize=12;fontColor=#000000;" vertex="1" connectable="0" parent="1">
          <mxGeometry x="140" y="1034.5" width="340.5" height="91" as="geometry" />
        </mxCell>
        <mxCell id="wRf2Hl0L2Rg9OZS0prIL-41" value="&lt;div style=&quot;font-size: 12px;&quot;&gt;LoginUrlAuthenticationEntryPoint&lt;/div&gt;" style="rounded=0;whiteSpace=wrap;html=1;verticalAlign=top;fontFamily=Verdana;fontSize=12;fontColor=#000000;" vertex="1" parent="wRf2Hl0L2Rg9OZS0prIL-40">
          <mxGeometry width="340.5" height="91" as="geometry" />
        </mxCell>
        <mxCell id="wRf2Hl0L2Rg9OZS0prIL-42" value="&lt;div style=&quot;background-color: rgb(255, 255, 255); font-size: 12px;&quot;&gt;&lt;br style=&quot;font-size: 12px;&quot;&gt;&lt;/div&gt;" style="text;whiteSpace=wrap;html=1;fontFamily=Verdana;fontSize=12;fontColor=#000000;" vertex="1" parent="wRf2Hl0L2Rg9OZS0prIL-40">
          <mxGeometry x="32.00276036879612" y="28.004711052389894" width="100" height="44" as="geometry" />
        </mxCell>
        <mxCell id="wRf2Hl0L2Rg9OZS0prIL-43" value="&lt;span style=&quot;font-size: 12px; font-style: normal; font-variant-ligatures: normal; font-variant-caps: normal; font-weight: 400; letter-spacing: normal; orphans: 2; text-align: left; text-indent: 0px; text-transform: none; widows: 2; word-spacing: 0px; -webkit-text-stroke-width: 0px; background-color: rgb(255, 255, 255); text-decoration-thickness: initial; text-decoration-style: initial; text-decoration-color: initial; float: none; display: inline !important;&quot;&gt;commence&lt;/span&gt;" style="rounded=0;whiteSpace=wrap;html=1;fontFamily=Verdana;fontSize=12;fontColor=#000000;" vertex="1" parent="wRf2Hl0L2Rg9OZS0prIL-40">
          <mxGeometry x="118" y="28" width="120" height="60" as="geometry" />
        </mxCell>
        <mxCell id="wRf2Hl0L2Rg9OZS0prIL-44" style="edgeStyle=orthogonalEdgeStyle;rounded=0;orthogonalLoop=1;jettySize=auto;html=1;entryX=1;entryY=0.25;entryDx=0;entryDy=0;fontFamily=Verdana;fontSize=12;fontColor=#000000;" edge="1" parent="1" source="wRf2Hl0L2Rg9OZS0prIL-46" target="wRf2Hl0L2Rg9OZS0prIL-4">
          <mxGeometry relative="1" as="geometry">
            <Array as="points">
              <mxPoint x="571" y="1288" />
              <mxPoint x="571" y="968" />
            </Array>
          </mxGeometry>
        </mxCell>
        <mxCell id="wRf2Hl0L2Rg9OZS0prIL-45" value="下一轮请求" style="edgeLabel;html=1;align=center;verticalAlign=middle;resizable=0;points=[];fontFamily=Verdana;fontSize=12;fontColor=#000000;" vertex="1" connectable="0" parent="wRf2Hl0L2Rg9OZS0prIL-44">
          <mxGeometry x="0.2674" y="1" relative="1" as="geometry">
            <mxPoint as="offset" />
          </mxGeometry>
        </mxCell>
        <mxCell id="wRf2Hl0L2Rg9OZS0prIL-46" value="响应302跳转到认证地址" style="rounded=0;whiteSpace=wrap;html=1;fontFamily=Verdana;fontSize=12;fontColor=#000000;" vertex="1" parent="1">
          <mxGeometry x="239" y="1258" width="166" height="60" as="geometry" />
        </mxCell>
        <mxCell id="wRf2Hl0L2Rg9OZS0prIL-47" value="开始认证" style="edgeStyle=orthogonalEdgeStyle;rounded=0;orthogonalLoop=1;jettySize=auto;html=1;entryX=0.5;entryY=0;entryDx=0;entryDy=0;fontFamily=Verdana;fontSize=12;fontColor=#000000;" edge="1" parent="1" source="wRf2Hl0L2Rg9OZS0prIL-43" target="wRf2Hl0L2Rg9OZS0prIL-46">
          <mxGeometry relative="1" as="geometry">
            <Array as="points">
              <mxPoint x="322" y="1239" />
            </Array>
          </mxGeometry>
        </mxCell>
        <mxCell id="wRf2Hl0L2Rg9OZS0prIL-48" value="&lt;div style=&quot;font-size: 12px;&quot;&gt;sendRedirectForAuthorization&lt;/div&gt;" style="rounded=0;whiteSpace=wrap;html=1;fontFamily=Verdana;fontSize=12;fontColor=#000000;" vertex="1" parent="1">
          <mxGeometry x="-1235" y="1168" width="254" height="60" as="geometry" />
        </mxCell>
        <mxCell id="wRf2Hl0L2Rg9OZS0prIL-49" value="filterChain.doFilter()" style="rounded=0;whiteSpace=wrap;html=1;" vertex="1" parent="1">
          <mxGeometry x="-743.25" y="1692" width="120" height="62" as="geometry" />
        </mxCell>
        <mxCell id="wRf2Hl0L2Rg9OZS0prIL-50" value="授权服务器" style="whiteSpace=wrap;html=1;aspect=fixed;" vertex="1" parent="1">
          <mxGeometry x="-1759" y="1103" width="203" height="203" as="geometry" />
        </mxCell>
      </root>
    </mxGraphModel>
  </diagram>
</mxfile>
